<svg xmlns="http://www.w3.org/2000/svg" width="1306.667" height="1317.333" preserveAspectRatio="xMidYMid meet" version="1.0" viewBox="0 0 980 988"><metadata>Created by potrace 1.16, written by Peter Selinger 2001-2019</metadata><g fill="#000" stroke="none"><path d="M4650 9863 c-19 -1 -87 -8 -150 -14 -607 -56 -1183 -221 -1745 -499 -306 -151 -550 -302 -806 -496 -1034 -787 -1715 -1938 -1898 -3209 -38 -265 -46 -385 -45 -710 0 -353 13 -516 65 -825 122 -724 415 -1429 842 -2027 678 -952 1676 -1639 2792 -1921 451 -114 836 -159 1295 -149 278 6 433 20 690 63 1493 248 2800 1187 3522 2529 607 1129 747 2429 393 3654 -195 677 -517 1279 -979 1836 -122 146 -455 481 -591 594 -840 696 -1792 1088 -2849 1171 -118 9 -453 11 -536 3z m486 -463 c871 -69 1665 -366 2349 -878 551 -413 1008 -959 1316 -1573 231 -463 383 -976 445 -1504 20 -178 31 -572 22 -808 -14 -382 -85 -773 -203 -1132 -126 -381 -334 -792 -565 -1120 -145 -206 -405 -509 -540 -631 l-37 -33 -23 31 c-94 128 -155 217 -205 303 -74 126 -181 235 -330 334 -369 247 -844 379 -1475 410 -148 7 -182 12 -217 29 -95 49 -113 108 -113 371 l1 196 90 44 c145 70 486 297 664 441 150 122 304 306 354 423 23 52 23 52 91 452 142 824 187 1204 177 1490 -19 532 -147 952 -390 1282 -87 117 -250 271 -377 356 -348 231 -764 340 -1300 340 -656 1 -1150 -171 -1500 -523 -311 -312 -481 -727 -530 -1295 -30 -354 11 -747 179 -1710 21 -121 43 -250 49 -288 25 -163 175 -372 377 -528 118 -91 374 -257 568 -369 l197 -115 0 -187 c0 -265 -18 -326 -108 -376 -37 -21 -65 -25 -190 -33 -726 -44 -1317 -234 -1663 -536 -88 -77 -135 -133 -215 -256 -37 -56 -94 -144 -127 -194 -34 -51 -64 -93 -68 -93 -9 0 -221 225 -311 330 -863 1005 -1227 2331 -1002 3649 216 1268 1002 2412 2117 3079 765 457 1682 686 2493 622z m134 -1685 c380 -47 655 -167 866 -379 346 -345 470 -914 370 -1686 -35 -265 -107 -694 -157 -935 -21 -104 -39 -213 -39 -241 0 -40 -7 -60 -30 -96 -61 -92 -257 -258 -305 -258 -11 0 -99 -52 -194 -115 -96 -63 -227 -143 -290 -177 -101 -55 -132 -78 -239 -183 l-123 -120 4 -305 c5 -341 8 -361 79 -510 55 -115 177 -239 288 -292 111 -54 176 -67 373 -78 489 -27 818 -101 1120 -251 200 -100 305 -186 415 -344 83 -117 186 -252 224 -292 l31 -32 -159 -104 c-728 -475 -1426 -740 -2189 -829 -172 -20 -705 -17 -885 5 -636 79 -1215 279 -1763 609 -111 67 -349 230 -441 303 -26 20 -15 42 61 131 32 38 93 117 135 175 127 174 241 269 443 369 289 141 670 228 1150 260 178 11 241 26 355 82 123 60 222 161 283 289 72 149 80 200 85 527 l4 283 -113 114 c-100 102 -123 120 -203 159 -50 24 -187 108 -304 185 -117 78 -221 141 -232 141 -25 0 -162 103 -239 181 -81 82 -101 121 -101 197 0 33 -11 113 -25 178 -94 456 -186 1074 -200 1344 -13 237 23 557 85 771 39 130 132 322 201 414 218 287 552 451 1036 510 153 18 472 18 623 0z" transform="translate(0.000000,988.000000) scale(0.100000,-0.100000)"/></g></svg>
