<?xml version="1.0" standalone="no"?>
<!DOCTYPE svg PUBLIC "-//W3C//DTD SVG 20010904//EN"
 "http://www.w3.org/TR/2001/REC-SVG-20010904/DTD/svg10.dtd">
<svg version="1.0" xmlns="http://www.w3.org/2000/svg"
 width="200.000000pt" height="200.000000pt" viewBox="0 0 200.000000 200.000000"
 preserveAspectRatio="xMidYMid meet">
<metadata>
Created by potrace 1.16, written by Peter Selinger 2001-2019
</metadata>
<g transform="translate(0.000000,200.000000) scale(0.100000,-0.100000)"
fill="#000000" stroke="none">
<path d="M805 1926 c-312 -72 -561 -280 -678 -566 -56 -137 -62 -173 -62 -360
0 -187 6 -223 62 -360 63 -154 187 -312 319 -406 77 -55 227 -126 319 -150
100 -27 370 -27 470 0 83 22 234 90 302 137 167 114 297 294 369 509 27 80 28
95 29 265 0 206 -8 246 -81 404 -54 116 -112 197 -200 282 -85 80 -140 118
-246 169 -142 69 -202 82 -383 86 -112 2 -178 -1 -220 -10z m395 -96 c251 -61
472 -245 581 -486 86 -190 93 -440 18 -644 -82 -221 -278 -417 -499 -499 -152
-56 -344 -68 -500 -31 -307 74 -556 324 -630 633 -27 113 -27 282 0 397 73
304 323 555 628 630 109 27 289 26 402 0z"/>
<path d="M1320 1375 l0 -75 -75 0 -75 0 0 -35 0 -35 75 0 75 0 0 -80 0 -80 35
0 35 0 0 80 0 80 75 0 75 0 0 35 0 35 -75 0 -75 0 0 75 0 75 -35 0 -35 0 0
-75z"/>
<path d="M822 1373 c-157 -77 -90 -373 85 -373 137 0 220 207 133 331 -40 56
-148 77 -218 42z"/>
<path d="M764 906 c-67 -16 -110 -42 -148 -89 -28 -35 -31 -46 -31 -105 l0
-67 75 -38 c41 -20 99 -42 129 -47 128 -24 270 -4 376 53 l60 32 3 52 c5 79
-37 148 -113 186 -74 37 -247 48 -351 23z"/>
</g>
</svg>
